<?xml version="1.0" encoding="UTF-8"?>
<svg width="263px" height="91px" viewBox="0 0 263 91" version="1.1" xmlns="http://www.w3.org/2000/svg" xmlns:xlink="http://www.w3.org/1999/xlink">
    <!-- Generator: Sketch 49 (51002) - http://www.bohemiancoding.com/sketch -->
    <title>LOGO</title>
    <desc>Created with Sketch.</desc>
    <defs>
        <polygon id="path-1" points="0.174545455 0.0997605779 0.515454545 0.0997605779 0.515454545 0.602332301 0.174545455 0.602332301"></polygon>
        <polygon id="path-3" points="0.181811688 0.0511359848 5.96512987 0.0511359848 5.96512987 21.7955539 0.181811688 21.7955539"></polygon>
        <polygon id="path-5" points="0.27 0.234194427 5.97427996 0.234194427 5.97427996 5.44880743 0.27 5.44880743"></polygon>
        <polygon id="path-7" points="0.0403636364 0.131347564 2.56876364 0.131347564 2.56876364 10.7616099 0.0403636364 10.7616099"></polygon>
        <polygon id="path-9" points="0.251298701 0.139190015 6.11912338 0.139190015 6.11912338 18.2903841 0.251298701 18.2903841"></polygon>
    </defs>
    <g id="3.7-登录页" stroke="none" stroke-width="1" fill="none" fill-rule="evenodd">
        <g id="登录页" transform="translate(-175.000000, -188.000000)">
            <g id="LOGO" transform="translate(175.000000, 188.000000)">
                <g id="地标商城" transform="translate(85.000000, 16.000000)" fill="#2C3036">
                    <path d="M122.159426,31.2769341 L122.158289,31.7715229 L122.158289,31.5715702 L122.151468,31.5750988 L122.151468,31.7950467 C122.151468,32.8959626 120.989331,33.7907508 119.544972,33.8130984 L119.546109,33.8148627 L119.507457,33.8148627 C119.501204,33.8148627 119.496372,33.8154508 119.49012,33.8154508 L113.279548,33.8154508 C113.277275,33.8154508 113.274148,33.8148627 113.270738,33.8148627 L103.231849,33.8154508 L103.231849,28.013589 L122.161416,28.013589 L122.159426,31.2769341 Z M100.033058,24.8928571 L100.033058,36.6071429 L109.915631,36.6065548 C109.920178,36.6065548 109.924157,36.6071429 109.929557,36.6071429 L120.497078,36.6071429 C120.507025,36.6071429 120.516404,36.6053786 120.526352,36.6053786 L120.59172,36.6053786 L120.590583,36.6030262 C123.048153,36.5600952 125.025975,34.8519701 125.025975,32.7477624 L125.025975,32.3266856 L125.037628,32.3199225 L125.037628,32.7018909 L125.038196,31.7571145 L125.041322,24.8928571 L100.033058,24.8928571 Z" id="Fill-11"></path>
                    <path d="M79.6043937,18.8558028 L83.7568662,18.8558028 L84.9623769,30.0051361 C85.1261444,31.584402 85.3049808,32.6198883 85.4980331,33.1113103 C85.7360077,33.6920819 86.1454264,34.1544795 86.7262892,34.496227 L86.7262892,38.8979685 C83.3920855,38.0935388 81.5246812,35.8666315 81.1229391,32.3068806 L79.6043937,18.8558028 Z M63.7533497,5.79747116 L86.436,5.79747116 L86.436,1.66377804 L63.7533497,1.66377804 L63.7533497,5.79747116 Z M63.463629,15.9633912 L63.463629,11.8296981 L86.7933884,11.8296981 L86.7933884,15.9633912 L77.193088,15.9633912 L77.193088,32.4532044 C77.193088,34.5384046 76.9474367,35.9682805 76.4567029,36.7431168 C75.2807613,38.5904311 73.6359785,39.5135192 71.5223543,39.5135192 L68.5759611,39.5135192 L68.5759611,35.3803952 L69.8932089,35.3803952 C70.9349521,35.3803952 71.6039537,35.2907612 71.9024882,35.1114931 C72.6758347,34.6499491 73.0633609,33.7641374 73.0633609,32.4532044 L73.0633609,15.9633912 L63.463629,15.9633912 Z M62.7039299,39.5357143 L62.7039299,35.1786475 C63.5824742,34.5833638 64.0808846,33.7937308 64.1997298,32.8106022 L65.6958141,19.5382233 L69.8482866,19.5382233 L68.4417627,31.8946279 C68.1884349,34.1286491 67.7795848,35.648159 67.2137908,36.4528733 C66.543652,37.3910426 65.8524736,38.0913262 65.1376967,38.5531548 C64.6168251,38.8801055 63.8056643,39.208479 62.7039299,39.5357143 Z M58.1499995,39.5135192 L61.6547944,39.5135192 L61.6547944,11.0033578 L58.1499995,11.0033578 L58.1499995,39.5135192 Z M46.0272248,8.88088126 L46.0047636,4.72442395 L52.1886923,4.74718815 L52.1886923,0 L56.3195566,0 L56.3195566,4.74718815 L61.9007299,4.74718815 L61.9007299,8.88088126 L56.3195566,8.88088126 L56.3195566,39.5135192 L52.1886923,39.5135192 L52.1886923,8.88088126 L46.0272248,8.88088126 Z M45.6033058,38.8979685 L45.6033058,34.6979747 C45.9456253,34.6228528 46.1651193,34.7008202 46.2617876,34.6188691 C46.3581716,34.5372026 46.4289669,34.3471215 46.4741735,34.0497643 C46.4883895,33.9305368 46.5256352,33.4835049 46.5856264,32.7089532 L46.8309933,10.4324819 L50.6709998,10.4324819 L50.4256329,33.4018384 C50.3807105,36.6192727 48.7731734,38.5849608 45.6033058,38.8979685 Z" id="Fill-1"></path>
                    <polygon id="Fill-3" points="91.2066116 7.32142857 91.2066116 2.83787368 109.715477 2.83787368 109.715477 0 113.865257 0 113.865257 2.83787368 132.396694 2.83787368 132.396694 7.32142857"></polygon>
                    <polygon id="Fill-5" points="8.67653658 0 4.51818855 0 4.51818855 7.77246849 0 7.77246849 0 12.0595873 4.51818855 12.0595873 4.51818855 36.7137665 0 36.7137665 0 41 13.2396694 41 13.2396694 36.7137665 8.67653658 36.7137665 8.67653658 12.0595873 13.2396694 12.0595873 13.2396694 7.77246849 8.67653658 7.77246849"></polygon>
                    <path d="M24.0647846,36.7122725 C22.9127254,36.7122725 22.1040284,36.4042866 21.637301,35.7900763 C21.2287753,35.2369348 21.0252086,34.3990018 21.0252086,33.2774516 L21.0252086,11.2607164 L26.6665947,11.2607164 L26.6665947,32.6086318 L30.6903082,32.6086318 L30.6903082,11.2607164 L36.7432831,11.2607164 C36.8763951,11.741926 36.944065,12.3247211 36.944065,13.0126248 L36.944065,25.9688784 C36.944065,26.7839107 36.7906242,27.3904874 36.4848565,27.7900763 C36.0181292,28.374633 34.9106263,28.6738109 33.1612341,28.6893717 L33.1612341,33.0469759 L33.9264888,33.0469759 C35.8942069,33.0469759 37.4687156,32.6007046 38.6497363,31.7096301 C40.2526497,30.495596 41.0543848,28.5361127 41.0543848,25.8305931 L41.0543848,11.5372871 C41.0507646,11.4312977 41.0435242,11.3382267 41.0354484,11.2436876 L41.0354484,7.01996477 L30.4850706,7.01996477 C30.6151194,6.63505578 30.6953207,6.1852613 30.6903082,5.65854375 L30.6903082,0 L26.6665947,0 L26.6665947,7.01996477 L21.0469298,7.01996477 L21.0252086,2.15443335 L16.9143319,2.15443335 L16.8731173,7.01996477 L14.7107438,7.01996477 L14.7107438,11.2607164 L16.9115471,11.2607164 L16.9143319,11.5601879 L16.8703325,33.6233118 C16.8703325,35.3291251 17.2203781,36.8044627 17.9201907,38.0490311 C19.0276935,40.0170288 21.0764484,41 24.0647846,41 L45.6033058,41 L45.6033058,36.6664709 L24.0647846,36.7122725 Z" id="Fill-7"></path>
                    <path d="M130.644074,14.2994183 C129.820406,13.538737 128.099543,13.1355788 126.766911,13.0902344 L126.766911,8.78571429 L122.543858,8.78571429 L122.543858,13.0902344 L101.385107,13.0902344 L101.385107,8.78571429 L97.2521746,8.78571429 L97.2521746,13.0902344 L96.9377558,13.0669809 L96.8925528,13.0669809 C96.6528049,13.0367513 95.6137067,13.1509843 95.0598262,13.4090985 C94.5657396,13.6375645 94.1463239,13.9043988 93.8021513,14.2087295 C92.6483289,15.227525 92.0721329,17.6284526 92.0721329,19.4547271 L92.090443,36.5039289 L86.7933884,36.5039289 L86.7933884,41 L96.2213732,41 L96.2213732,40.8407133 L96.2288116,40.8407133 L96.2502688,20.6644923 C96.2502688,19.7512097 96.4150597,18.1336356 96.7449276,17.7688458 C97.0290202,17.4645152 97.5757483,17.3122045 98.3848259,17.3122045 L102.316061,17.3122045 C101.851729,18.7731079 101.215167,20.7865734 100.406661,21.3946534 C99.9569196,21.7295043 99.2233712,21.9806425 98.205158,22.1480679 L98.205158,25.8229986 C100.496209,25.5186679 102.203626,24.9021586 103.327408,23.9737611 C104.764751,22.7866681 105.857349,19.9139845 106.606633,17.3122045 L117.59212,17.3122045 C117.936865,18.3164666 118.198642,20.0099053 118.378024,20.4357357 C118.932191,21.7597339 119.665739,22.8325939 120.579814,23.6543157 C121.987689,24.9172734 123.814693,25.640749 126.060828,25.8229986 L126.060828,22.1480679 C125.0429,21.9806425 124.286464,21.7062507 123.792664,21.3260554 C123.162968,20.8697048 122.593925,19.0166887 122.084961,17.7226294 C122.04033,17.6319406 121.979964,17.4950354 121.905579,17.3122045 L126.106317,17.2895323 C126.945148,17.2747082 127.528496,18.5193537 127.858364,19.0669744 C128.068072,19.4015347 128.172783,20.6185666 128.172783,22.7186516 L128.172783,34.0620169 L128.936944,40.384072 C129.984625,39.9277213 130.853496,39.1818642 131.5427,38.1473725 C132.112029,37.2651915 132.396694,35.9112544 132.396694,34.0846891 L132.396694,19.5922137 C132.396694,17.8112835 131.812202,15.3952411 130.644074,14.2994183" id="Fill-12"></path>
                    <polygon id="Fill-14" points="144.00174 0 140.010976 0 140.010976 8.21732254 136.905279 8.21732254 136.905279 12.3859538 140.010976 12.3859538 140.010976 35.3682308 127.983471 35.3682308 127.983471 39.5357143 144.008058 39.5357143 144.008058 35.3682308 144.00174 35.3682308 144.00174 12.3859538 147.107438 12.3859538 147.107438 8.21732254 144.00174 8.21732254"></polygon>
                    <path d="M178,4.70021922 L177.039787,4.70021922 L177.039787,0.893843858 L172.906178,0.893843858 L172.906178,4.70021922 L169.868776,4.70021922 L169.466767,0 L165.288775,0 L165.668023,4.70021922 L155.459326,4.70021922 C153.895388,4.70021922 152.60031,5.15226473 151.571816,6.05606295 C150.276453,7.22160255 149.62863,8.72324852 149.62863,10.562172 L149.605869,35.160591 C149.605869,35.9428873 149.263891,36.3867351 148.578512,36.4947693 L148.578512,40.7473347 C150.291247,40.6094374 151.609371,39.9577189 152.532597,38.7933504 C153.351979,37.7657081 153.76167,36.2406401 153.76167,34.2181464 L153.76167,17.3905769 L158.095572,17.3905769 C159.227058,17.3905769 159.792944,17.9647098 159.792944,19.113854 L159.792944,32.4248959 C159.792944,33.1609337 159.689383,33.6665572 159.48027,33.9426445 C159.212264,34.2954391 158.750793,34.4711045 158.095572,34.4711045 L156.017814,34.4711045 L156.017814,38.7699284 L159.792944,38.7699284 C161.01405,38.7699284 161.997308,38.3869779 162.742433,37.621077 C163.486704,36.8387806 163.859125,35.7894729 163.859125,34.4711045 L163.859125,17.0222652 C163.859125,15.8420868 163.501783,14.8996422 162.786531,14.1946386 C161.997308,13.4436693 160.828266,13.0680382 159.279408,13.0680382 L153.76167,13.0680382 L153.76167,11.137476 C153.76167,10.6160427 154.0072,10.1180314 154.498544,9.64285663 C154.960015,9.1984233 155.638281,8.9764994 156.531919,8.9764994 L166.204889,8.9764994 L168.50627,27.0685666 C167.433392,28.0036918 166.442737,28.8544977 165.534589,29.6206914 L165.534589,35.2531081 L169.600486,31.7354094 C170.538222,34.3560437 171.655768,36.3562865 172.951699,37.7355522 C174.410938,39.2834568 176.094084,40.3717036 178,41 L178,36.4253815 C175.691791,34.7550968 174.046484,32.202972 173.062657,28.7693 C175.177686,26.8238062 176.547874,25.0077193 177.17379,23.3216247 C177.621036,22.1721877 177.843805,20.3789373 177.843805,17.9421661 L173.80067,17.9421661 C173.81461,19.2139832 173.755717,20.2102986 173.621145,20.9308193 C173.442759,21.8656517 172.996082,22.7548112 172.280831,23.5971265 L170.471648,8.9764994 L178,8.9764994 L178,4.70021922 Z" id="Fill-15"></path>
                    <polygon id="Fill-9" points="27.9504132 10.25 30.892562 10.25 30.892562 4.39285714 27.9504132 4.39285714"></polygon>
                    <polygon id="Fill-13" points="127.983471 39.5357143 132.396694 39.5357143 132.396694 32.2142857 127.983471 32.2142857"></polygon>
                </g>
                <g id="形象">
                    <path d="M48.4090909,71.8573002 C48.4090909,77.6876543 43.5250455,82.4148607 37.4998601,82.4148607 C31.4749545,82.4148607 26.5909091,77.6876543 26.5909091,71.8573002 C26.5909091,66.026946 31.4749545,61.3003096 37.4998601,61.3003096 C43.5250455,61.3003096 48.4090909,66.026946 48.4090909,71.8573002" id="Fill-16" fill="#FFFFFF"></path>
                    <path d="M54.0982001,62.0139619 C50.54462,63.0007518 47.1482979,63.6573963 43.9140422,64.0548612 C45.5771313,65.8385443 46.6038343,68.2757865 46.6038343,70.9649154 C46.6038343,76.4281639 42.3751192,80.8574989 37.1595813,80.8574989 C31.943195,80.8574989 27.7144799,76.4281639 27.7144799,70.9649154 C27.7144799,68.3484354 28.6857466,65.9712196 30.2696409,64.2021223 C31.5135637,64.3401271 24.1481721,63.3261288 20.241327,61.9814241 C17.2333419,66.4848104 15.0235264,72.5415915 17.3063142,79.8320003 L19.2369682,77.2985474 L21.5590705,80.3579329 C21.7321675,76.6598548 22.2851164,74.0804004 23.3002229,71.8549338 C23.8571315,79.1660993 26.4366166,86.8679978 28.7867198,90.5882353 L30.3386535,87.7409059 L32.1295854,90.5882353 C33.2569788,87.0469552 35.1078725,85.2192339 37.1595813,85.2192339 C39.2101589,85.2192339 41.0616182,87.0469552 42.1878802,90.5882353 L43.9793779,87.7409059 L45.5313115,90.5882353 C47.8814148,86.8679978 50.4620312,79.1660993 51.0172427,71.8549338 C52.0323493,74.0804004 52.5847325,76.6598548 52.7595265,80.3579329 L55.0810631,77.2985474 L57.012,79.8320003 C59.2888481,72.5575798 57.096003,66.5134212 54.0982001,62.0139619" id="Fill-17" fill="#BC1D25"></path>
                    <g id="Group-20" transform="translate(17.045455, 79.009288)">
                        <mask id="mask-2" fill="white">
                            <use xlink:href="#path-1"></use>
                        </mask>
                        <g id="Clip-19"></g>
                        <path d="M0.297274832,0.0997605779 L0.174431818,0.239389061 C0.214941077,0.360400413 0.251241582,0.480049536 0.295433502,0.602423117 L0.515340909,0.350183695 L0.297274832,0.0997605779 Z" id="Fill-18" fill="#040000" mask="url(#mask-2)"></path>
                    </g>
                    <g id="Group-23" transform="translate(45.681818, 68.111455)">
                        <mask id="mask-4" fill="white">
                            <use xlink:href="#path-3"></use>
                        </mask>
                        <g id="Clip-22"></g>
                        <path d="M0.181811688,21.5907305 L0.297525974,21.7955539 C2.72548052,18.0897318 5.39158442,10.4170987 5.96518831,3.13343431 C5.33781818,1.88968421 4.53716883,0.341912519 4.31538312,0.0510242121 C4.34723377,6.45336128 3.59918182,14.8743123 0.181811688,21.5907305" id="Fill-21" fill="#AA1A21" mask="url(#mask-4)"></path>
                    </g>
                    <g id="Group-26" transform="translate(31.363636, 84.458204)">
                        <mask id="mask-6" fill="white">
                            <use xlink:href="#path-5"></use>
                        </mask>
                        <g id="Clip-25"></g>
                        <path d="M0.269972107,4.28355666 L1.01386674,5.44880743 C2.12566426,2.00917895 3.95123244,0.234194427 5.97427996,0.234194427 C3.2388564,0.234194427 1.40798864,2.26473313 0.269972107,4.28355666" id="Fill-24" fill="#AA1A21" mask="url(#mask-6)"></path>
                    </g>
                    <path d="M25.2272727,71.6465166 C25.2439773,71.6168881 25.2623864,71.5845351 25.27875,71.5562689 C25.27875,71.5562689 25.245,71.4234515 25.2272727,71.6465166" id="Fill-27" fill="#E01714"></path>
                    <g id="Group-30" transform="translate(21.136364, 69.473684)">
                        <mask id="mask-8" fill="white">
                            <use xlink:href="#path-7"></use>
                        </mask>
                        <g id="Clip-29"></g>
                        <path d="M2.52730909,0.131347564 C1.51630909,1.92977676 0.248945455,5.29319211 0.0403090909,9.57690077 L0.889581818,10.7616099 C1.05676364,6.98149584 1.58967273,4.34393352 2.56876364,2.06886752 C2.51230909,0.823359948 2.5134,0.322346423 2.52730909,0.131347564" id="Fill-28" fill="#AA1A21" mask="url(#mask-8)"></path>
                    </g>
                    <g id="Group-33" transform="translate(52.500000, 61.981424)">
                        <mask id="mask-10" fill="white">
                            <use xlink:href="#path-9"></use>
                        </mask>
                        <g id="Clip-32"></g>
                        <path d="M0.251298701,0.796635836 C3.63535714,5.42030747 5.76730519,10.6942413 4.74224026,17.766094 L5.14548701,18.290499 C7.48022727,10.8948082 5.265,4.73700058 2.20470779,0.139190015 L0.251298701,0.796635836 Z" id="Fill-31" fill="#AA1A21" mask="url(#mask-10)"></path>
                    </g>
                    <path d="M58.7180983,18.025303 C63.3426409,12.8828116 63.6997474,5.97289645 60.369397,0 C59.7905504,5.92057418 56.0223836,9.60394941 51.0095833,12.4667652 C47.3102323,10.825365 42.813693,9.96064101 37.4998584,9.96064101 C32.1846079,9.96064101 27.6889181,10.825365 23.9887176,12.4667652 C18.9767668,9.60394941 15.2077504,5.92057418 14.6300366,0 C11.2996862,5.97289645 11.6565095,12.8828116 16.2813353,18.025303 C11.4823457,17.5951915 7.03281641,20.7725034 0,18.0697488 C1.93845648,23.6195663 5.71596869,27.0719921 12.5021239,25.5948726 C11.595623,28.506635 11.1252393,31.7925298 11.0864418,35.4179567 C17.1748094,30.2785596 27.8710112,28.253744 37.4998584,28.253744 C47.1272896,28.253744 57.8246242,30.2785596 63.9129918,35.4179567 C63.8733447,31.7925298 63.4035275,28.506635 62.4967433,25.5948726 C69.2834649,27.0719921 73.0604107,23.6195663 75,18.0697488 C67.966334,20.7725034 63.5168047,17.5951915 58.7180983,18.025303" id="Fill-34" fill="#BC1C25"></path>
                    <path d="M51.1385382,25.8823529 C51.1189208,25.8823529 51.0984626,25.8823529 51.0777242,25.8801893 C50.7276934,25.8493567 50.4712656,25.5483333 50.5026535,25.2105273 C50.8030803,22.134572 49.4085618,20.5399327 47.8929758,20.3246456 C46.4920116,20.1258566 44.7449401,21.0657093 44.2158302,23.5993899 C44.1463284,23.9323276 43.81031,24.1457215 43.4656039,24.079729 C43.1206175,24.013466 42.8975394,23.6883716 42.9673214,23.3562453 C43.6295495,20.1848171 46.0380084,18.8230449 48.0782204,19.108111 C50.1884945,19.4085934 52.149396,21.447871 51.77106,25.3257438 C51.7410733,25.6440766 51.4630664,25.8823529 51.1385382,25.8823529" id="Fill-35" fill="#FFFFFF"></path>
                    <path d="M23.1803041,25.8823529 C22.8558053,25.8823529 22.5789444,25.6440664 22.5469989,25.3257199 C22.1692576,21.4476811 24.1294212,19.4083163 26.2395045,19.107821 C28.2806527,18.8240951 30.6888937,20.1845732 31.3507817,23.3561371 C31.4208376,23.6882777 31.1974995,24.013386 30.8525443,24.0796518 C30.5089902,24.1456472 30.1721615,23.9322441 30.1026661,23.5992921 C29.5736041,21.0655031 27.827251,20.1256101 26.4258531,20.3244076 C24.9106844,20.539704 23.5157317,22.1344115 23.8152906,25.2104985 C23.8486372,25.548319 23.591392,25.8493553 23.2411126,25.8801892 C23.2206563,25.8823529 23.2007604,25.8823529 23.1803041,25.8823529" id="Fill-36" fill="#FFFFFF"></path>
                    <path d="M1.25263278,20.2867447 C6.56173507,21.0878784 12.0529971,18.3756337 16.3636364,17.7453817 C11.5403882,17.3611492 7.06836682,20.1997961 0,17.7853379 C0.352934479,18.6859851 0.768486366,19.5233055 1.2517789,20.2852369 L1.25263278,20.2867447 Z" id="Fill-37" fill="#AA1F24"></path>
                    <path d="M22.0992286,14.3034056 C25.8035891,12.6324817 30.3037052,11.4301375 35.6248076,11.4301375 C40.9442091,11.4301375 45.4451757,12.6324817 49.1486857,14.3034056 C51.5254637,12.9239851 53.6167675,11.6775864 55.2272727,9.77122848 C53.9935254,10.8428396 52.5964879,11.7991653 51.0818023,12.6773944 C47.3780088,11.008187 42.8767587,10.1290997 37.5573572,10.1290997 C32.2368218,10.1290997 27.7361386,11.008187 24.0320617,12.6773944 C19.0151438,9.76607926 15.2421788,6.02030341 14.6635762,0 C12.9977905,5.55858947 17.6637482,11.7290786 22.0992286,14.3034056" id="Fill-38" fill="#AA1F24"></path>
                    <path d="M58.6009316,18.2157614 C63.2587531,13.0189335 63.6184293,6.03600707 60.2652542,0 C60.145172,1.22380306 59.8819038,2.34697284 59.5102479,3.39338842 C61.8984867,7.91676922 61.6968284,15.0884542 56.5909091,19.7019501 C61.4238624,19.2675782 66.2958923,22.6061015 73.3787473,19.8767791 C72.8048626,21.5238673 71.7463705,23.3091131 70.821937,24.5201238 C72.7195785,23.1195018 74.0698619,20.9314386 75,18.2606768 C67.9157188,20.9919892 63.4341701,17.7811052 58.6009316,18.2157614" id="Fill-39" fill="#AA1F24"></path>
                    <path d="M63.4090909,34.7368421 C63.3146151,31.4758543 62.8815125,28.5018939 62.1012908,25.8431883 C61.3990913,25.3149686 60,24.5201238 60,24.5201238 C60.5936584,26.5662064 61.4327948,29.986219 61.5559318,33.8679348 L63.4090909,34.7368421 Z" id="Fill-40" fill="#AA1F24"></path>
                    <path d="M37.1593725,29.2879257 C45.2612832,29.2879257 52.996538,30.7419993 58.3811968,33.2778516 C64.5174718,36.1673132 67.5,40.1558235 67.5,45.4701568 C67.5,50.985501 64.6337766,55.1634146 58.7388411,58.2400146 C53.2747684,61.0918221 45.6107608,62.6625387 37.1593725,62.6625387 C28.707421,62.6625387 21.0434135,61.0918221 15.5793407,58.2400146 C9.68412358,55.1634146 6.81818182,50.985501 6.81818182,45.4701568 C6.81818182,40.1558235 9.80070999,36.1673132 15.9361402,33.2778516 C21.3213622,30.7419993 29.0560538,29.2879257 37.1593725,29.2879257" id="Fill-41" fill="#FFFFFF"></path>
                    <path d="M27.9545455,37.8017215 C27.9545455,40.2470138 26.5810299,42.2291022 24.8862273,42.2291022 C23.1916974,42.2291022 21.8181818,40.2470138 21.8181818,37.8017215 C21.8181818,35.3575178 23.1916974,33.374613 24.8862273,33.374613 C26.5810299,33.374613 27.9545455,35.3575178 27.9545455,37.8017215" id="Fill-42" fill="#BC1D25"></path>
                    <path d="M47.0454545,37.8017215 C47.0454545,40.2470138 48.4192429,42.2291022 50.1135,42.2291022 C51.8074844,42.2291022 53.1818182,40.2470138 53.1818182,37.8017215 C53.1818182,35.3575178 51.8074844,33.374613 50.1135,33.374613 C48.4192429,33.374613 47.0454545,35.3575178 47.0454545,37.8017215" id="Fill-43" fill="#BC1D25"></path>
                    <path d="M37.1594341,57.8947368 C33.3743994,57.8947368 23.8630568,57.1207814 17.2952875,49.952553 C16.9394247,49.5640402 16.966885,48.9620128 17.3574934,48.6072716 C17.7461404,48.2533677 18.3502664,48.2815573 18.7061292,48.6692327 C24.7605594,55.2781367 33.6285471,55.9923639 37.1594341,55.9923639 C40.6906013,55.9923639 49.5569077,55.2781367 55.6118984,48.6692327 C55.9677612,48.2815573 56.571607,48.2533677 56.9610946,48.6072716 C57.3508624,48.9620128 57.3788831,49.5640402 57.0233005,49.952553 C50.455251,57.1207814 40.9433479,57.8947368 37.1594341,57.8947368" id="Fill-44" fill="#BC1D25"></path>
                    <path d="M37.1590909,26.5634675 C22.3829709,26.5634675 4.09090909,31.262027 4.09090909,45.834087 C4.09090909,60.4055868 21.0912341,66.0681115 37.1590909,66.0681115 C53.2266666,66.0681115 70.2272727,60.4055868 70.2272727,45.834087 C70.2272727,31.262027 51.9346487,26.5634675 37.1590909,26.5634675 M37.1590909,29.7457845 C44.9660166,29.7457845 52.4190149,31.1340398 57.607046,33.5554349 C63.5197992,36.3143018 66.3936677,40.122832 66.3936677,45.1972315 C66.3936677,50.4629117 63.6322464,54.4520803 57.9519777,57.3896252 C52.6872013,60.1123645 45.3025148,61.6123636 37.1590909,61.6123636 C29.0159482,61.6123636 21.6304182,60.1123645 16.3656419,57.3896252 C10.6850921,54.4520803 7.92367079,50.4629117 7.92367079,45.1972315 C7.92367079,40.122832 10.7981015,36.3143018 16.7097302,33.5554349 C21.8986047,31.1340398 29.3513219,29.7457845 37.1590909,29.7457845" id="Fill-45" fill="#BC1D25"></path>
                    <path d="M37.4997282,72.6696462 C36.6652593,72.6696462 35.9873552,71.9490789 35.9873552,71.0600898 C35.9873552,70.170522 36.6652593,69.4508228 37.4997282,69.4508228 C38.3344689,69.4508228 39.012373,70.170522 39.012373,71.0600898 C39.012373,71.9490789 38.3344689,72.6696462 37.4997282,72.6696462 M37.4997282,67.4303406 C35.6171446,67.4303406 34.0909091,69.0546555 34.0909091,71.0600898 C34.0909091,74.0037085 37.4997282,77.6470588 37.4997282,77.6470588 C37.4997282,77.6470588 40.9090909,74.0037085 40.9090909,71.0600898 C40.9090909,69.0546555 39.3828554,67.4303406 37.4997282,67.4303406" id="Fill-46" fill="#BC1D25"></path>
                </g>
                <g id="dbmall.com" transform="translate(87.000000, 66.000000)" fill="#BC1D25">
                    <path d="M3.83429361,3.04535298 L3.83429361,15.9414332 L6.73881458,15.9414332 C7.37664592,15.9414332 7.87539069,15.9251269 8.23617283,15.8894216 C8.59864086,15.8548409 8.97234821,15.7688108 9.36038569,15.6296444 C9.74729924,15.492165 10.0825119,15.2970509 10.3668667,15.0465515 C11.648711,13.9576804 12.2901951,12.0830115 12.2901951,9.42226365 C12.2901951,7.54759474 12.0083692,6.14271763 11.4444364,5.20988148 C10.8813465,4.27732647 10.1864756,3.68326897 9.36038569,3.42714668 C8.53345281,3.17243012 7.53483933,3.04535298 6.36482625,3.04535298 L3.83429361,3.04535298 Z M2.34901763,0 L7.34545681,0 C8.64528403,0 9.76050544,0.121173111 10.6902781,0.362394756 C11.6197698,0.604178689 12.4627187,1.05738299 13.2196868,1.7228511 C15.1907823,3.41674435 16.1764706,5.99202439 16.1764706,9.44812891 C16.1764706,10.5887306 16.0767216,11.6292449 15.8789096,12.5710777 C15.6816596,13.5131916 15.3753881,14.3616845 14.9623432,15.117681 C14.5495792,15.8739587 14.0196453,16.5509537 13.3759133,17.1455735 C12.8664912,17.6044006 12.3121118,17.9724183 11.7096843,18.2473772 C11.1072568,18.5245853 10.4590291,18.7194182 9.76584412,18.8307512 C9.07350208,18.9440523 8.29321237,19 7.42357008,19 L2.42656893,19 C1.7308551,19 1.20485498,18.894571 0.853064298,18.6825883 C0.499587721,18.4711679 0.268900703,18.1725929 0.162127174,17.7877066 C0.0531057814,17.4031015 0,16.9040707 0,16.2911765 L0,2.35823678 C0,1.52886166 0.185729743,0.929181279 0.554379401,0.556946479 C0.925557904,0.185836256 1.5229277,0 2.34901763,0 Z" id="Fill-47"></path>
                    <path d="M24.9633424,10.5630216 L21.2329365,10.5630216 L21.2329365,16.1095146 L25.083695,16.1095146 C27.5075654,16.1095146 28.7181867,15.1724475 28.7181867,13.2977508 C28.7181867,12.3387541 28.4036406,11.642631 27.7771763,11.2113495 C27.1480842,10.7786623 26.2107527,10.5630216 24.9633424,10.5630216 Z M21.2329365,2.88964191 L21.2329365,7.80186446 L24.5166186,7.80186446 C25.4103289,7.80186446 26.1001229,7.71077242 26.5870517,7.53027523 C27.0739806,7.34809115 27.4466007,7.00312223 27.7041238,6.49368156 C27.9059379,6.1298757 28.005531,5.7244599 28.005531,5.27462267 C28.005531,4.31590707 27.687306,3.6782628 27.05217,3.36253329 C26.4170339,3.04820953 25.4455412,2.88964191 24.1424218,2.88964191 L21.2329365,2.88964191 Z M25.2292744,19 L19.8205012,19 C19.0387346,19 18.4821694,18.8116307 18.1471266,18.4362977 C17.8141861,18.0609648 17.6470588,17.4615567 17.6470588,16.6406037 L17.6470588,2.35799053 C17.6470588,1.52016869 17.8168138,0.916824504 18.1592144,0.550769458 C18.501615,0.183027523 19.0555525,0 19.8205012,0 L25.5545944,0 C26.3999533,0 27.1323175,0.0556673572 27.7527379,0.167564368 C28.3718444,0.280585972 28.9284096,0.496226694 29.4190174,0.815892276 C29.8368355,1.08354543 30.2081417,1.42261024 30.5289945,1.83308671 C30.8519494,2.24384433 31.0973847,2.69705534 31.2660886,3.19468778 C31.4347925,3.69119562 31.5199328,4.21609944 31.5199328,4.76968038 C31.5199328,6.67024268 30.6333176,8.06192661 28.862715,8.94248298 C31.1893573,9.73757029 32.3529412,11.2838858 32.3529412,13.5819917 C32.3529412,14.6450133 32.0993598,15.6026043 31.5927225,16.453359 C31.0850341,17.3046759 30.3999701,17.9336046 29.5391072,18.3387393 C29.0001482,18.5816514 28.3792022,18.7523084 27.6799482,18.8509914 C26.9804314,18.9510802 26.1621386,19 25.2292744,19 Z" id="Fill-48"></path>
                    <path d="M41.6346288,15.8649392 L38.7009676,3.96271024 L38.7009676,16.8587266 C38.7009676,17.5730373 38.5453205,18.1082174 38.2337549,18.4648199 C37.9211026,18.8222516 37.5071304,19 36.991295,19 C36.491486,19 36.0845764,18.8236338 35.7689361,18.4711779 C35.4522094,18.1195513 35.2941176,17.5818833 35.2941176,16.8587266 L35.2941176,2.07741663 C35.2941176,1.26110109 35.5027336,0.711822732 35.9180639,0.426540767 C36.3331227,0.14208811 36.895951,0 37.6041042,0 L38.7512201,0 C39.4419887,0 39.9436991,0.0641331549 40.2547215,0.190187976 C40.5665588,0.318454286 40.7974488,0.548172612 40.9482064,0.878790083 C41.098964,1.20968399 41.2681928,1.75011639 41.4599673,2.49759937 L44.1190052,12.7301548 L46.7764134,2.49759937 C46.9681879,1.75011639 47.1390465,1.20968399 47.287631,0.878790083 C47.4378453,0.548172612 47.6687353,0.318454286 47.9800294,0.190187976 C48.2929532,0.0641331549 48.7935771,0 49.4838024,0 L50.6336346,0 C51.3393431,0 51.9016282,0.14208811 52.3180451,0.426540767 C52.7339187,0.711822732 52.9411765,1.26110109 52.9411765,2.07741663 L52.9411765,16.8587266 C52.9411765,17.5730373 52.7855294,18.1082174 52.4739638,18.4648199 C52.1618548,18.8222516 51.7435364,19 51.218737,19 C50.7289786,19 50.3253285,18.8222516 50.0088734,18.4648199 C49.691875,18.1082174 49.5343266,17.5730373 49.5343266,16.8587266 L49.5343266,3.96271024 L46.6017519,15.8649392 C46.4110639,16.6395129 46.2540587,17.2067596 46.1337242,17.5666793 C46.0128465,17.9282576 45.7911921,18.2577693 45.465773,18.5541087 C45.1406256,18.8521067 44.6913408,19 44.1190052,19 C43.6841171,19 43.3190393,18.9054589 43.0191539,18.7138887 C42.7206267,18.5223186 42.487292,18.2779491 42.3210512,17.980504 C42.1545388,17.6841646 42.022524,17.3549293 41.92718,16.993351 C41.8321077,16.6328784 41.733504,16.2558197 41.6346288,15.8649392" id="Fill-49"></path>
                    <path d="M61.7852294,11.5059739 L67.4711964,11.5059739 L64.602229,3.92359094 L61.7852294,11.5059739 Z M69.4168862,16.6067509 L68.50886,14.301315 L60.7743971,14.301315 L59.8655236,16.6570464 C59.5119159,17.5767739 59.2088639,18.196088 58.9574974,18.5174353 C58.7066958,18.8393263 58.2960363,19 57.7238245,19 C57.2411443,19 56.812409,18.8292672 56.4395958,18.4864424 C56.0687596,18.144705 55.8823529,17.7564783 55.8823529,17.3220341 C55.8823529,17.0705568 55.925283,16.8120108 56.011143,16.5439495 C56.0972854,16.2767038 56.2410445,15.9045173 56.4395958,15.4282055 L61.3065033,3.49784652 C61.4437664,3.15474981 61.6106851,2.7431425 61.8061296,2.2630246 C61.9993146,1.78290669 62.2088809,1.38353342 62.4291796,1.06544851 C62.6497608,0.749266673 62.9398208,0.49126447 63.2985123,0.295519911 C63.6572039,0.0995034842 64.1011906,0 64.6282129,0 C65.1648381,0 65.6124964,0.0995034842 65.9711879,0.295519911 C66.3301619,0.49126447 66.619657,0.743829324 66.8405207,1.05294261 C67.0611018,1.36205589 67.2463787,1.69509351 67.3983284,2.04960865 C67.5494307,2.4049394 67.7423333,2.87853249 67.9761889,3.47283472 L72.9464674,15.3292458 C73.3362267,16.2310301 73.5294118,16.8870462 73.5294118,17.2964786 C73.5294118,17.722223 73.3472417,18.1131684 72.9786649,18.4676835 C72.6112179,18.8230143 72.1672312,19 71.6489643,19 C71.3461948,19 71.0863552,18.9483452 70.8700106,18.84422 C70.653101,18.7387354 70.472908,18.5981799 70.3243475,18.4184755 C70.1777641,18.2387712 70.0201658,17.9625538 69.8521174,17.5906392 C69.6818095,17.2187245 69.5383329,16.8911242 69.4168862,16.6067509 Z" id="Fill-50"></path>
                    <path d="M80.2225719,2.294252 L80.2225719,15.8908739 L87.824668,15.8908739 C88.4310325,15.8908739 88.8955638,16.0393093 89.2207357,16.3370092 C89.5434338,16.6341563 89.7058824,17.0084234 89.7058824,17.4581521 C89.7058824,17.9170025 89.5459077,18.2885055 89.2256834,18.5734903 C88.9054592,18.8584751 88.438454,19 87.824668,19 L78.7696059,19 C77.9526905,19 77.3661166,18.8172891 77.0076854,18.4521437 C76.6503536,18.0869983 76.4705882,17.4965739 76.4705882,16.6805941 L76.4705882,2.294252 C76.4705882,1.52913278 76.6418326,0.957228276 76.9834968,0.574115833 C77.3235117,0.192109053 77.771001,0 78.327614,0 C78.8913736,0 79.3487583,0.189344894 79.6978439,0.567481851 C80.0469296,0.945618808 80.2225719,1.52166955 80.2225719,2.294252" id="Fill-51"></path>
                    <path d="M94.9270799,2.294252 L94.9270799,15.8908739 L102.53055,15.8908739 C103.135541,15.8908739 103.601446,16.0393093 103.925244,16.3370092 C104.249316,16.6341563 104.411765,17.0084234 104.411765,17.4581521 C104.411765,17.9170025 104.251515,18.2885055 103.931566,18.5734903 C103.611342,18.8584751 103.144062,19 102.53055,19 L93.4741139,19 C92.6585728,19 92.0711744,18.8172891 91.7132929,18.4521437 C91.3548616,18.0869983 91.1764706,17.4965739 91.1764706,16.6805941 L91.1764706,2.294252 C91.1764706,1.52913278 91.3468904,0.957228276 91.687455,0.574115833 C92.0280197,0.192109053 92.4766085,0 93.0315722,0 C93.5958816,0 94.0532663,0.189344894 94.4037263,0.567481851 C94.7517124,0.945618808 94.9270799,1.52166955 94.9270799,2.294252" id="Fill-52"></path>
                    <path d="M109.580193,19 C108.975458,19 108.452055,18.8056269 108.011899,18.4171967 C107.572381,18.0287664 107.352941,17.4851538 107.352941,16.7857266 C107.352941,16.1940737 107.563769,15.6830146 107.981599,15.2563419 C108.403893,14.828721 108.921235,14.6153846 109.53554,14.6153846 C110.151758,14.6153846 110.676756,14.8258765 111.112765,15.2493887 C111.545904,15.6716367 111.764706,16.18396 111.764706,16.7857266 C111.764706,17.4753561 111.545904,18.0170725 111.112765,18.4099274 C110.676756,18.8043627 110.166749,19 109.580193,19" id="Fill-53"></path>
                    <path d="M130.882353,12.8841575 C130.882353,13.4697516 130.739051,14.1029218 130.455409,14.78394 C130.170151,15.4646864 129.723812,16.132927 129.112083,16.7889337 C128.501163,17.4446686 127.721619,17.9772493 126.773184,18.3869477 C125.824748,18.7952867 124.719542,19 123.457565,19 C122.498624,19 121.628573,18.908382 120.845259,18.7248741 C120.061675,18.541638 119.349473,18.254822 118.709191,17.8666008 C118.070795,17.4775641 117.482232,16.9661888 116.946733,16.3316592 C116.467802,15.7550366 116.059713,15.1090888 115.722198,14.3943595 C115.383606,13.6807177 115.129325,12.9181405 114.960433,12.1079871 C114.790732,11.2972899 114.705882,10.4365699 114.705882,9.5260989 C114.705882,8.04743304 114.917873,6.72318567 115.34347,5.5533568 C115.769606,4.38352793 116.376756,3.38252633 117.168421,2.55089572 C117.961163,1.72035256 118.888589,1.08691049 119.954467,0.652472527 C121.018461,0.217762706 122.152759,0 123.357361,0 C124.826749,0 126.13371,0.296875 127.281476,0.891168727 C128.427895,1.48383127 129.306565,2.21677541 129.917755,3.08972928 C130.527599,3.96295501 130.831982,4.78833276 130.831982,5.56586252 C130.831982,5.99187271 130.684369,6.36731628 130.38699,6.69300881 C130.089611,7.01951694 129.731085,7.18181948 129.310336,7.18181948 C128.839755,7.18181948 128.487156,7.06953984 128.252,6.84362122 C128.016574,6.61743075 127.754482,6.22920959 127.46653,5.67787031 C126.987598,4.76821486 126.424894,4.08583734 125.777609,3.63508757 C125.128977,3.18379407 124.330847,2.95896291 123.382142,2.95896291 C121.872349,2.95896291 120.669094,3.53966346 119.77507,4.70024897 C118.878622,5.86273752 118.431745,7.51186184 118.431745,9.651428 C118.431745,11.080071 118.629998,12.2686584 119.025965,13.2174622 C119.421393,14.1657223 119.982751,14.8731113 120.708421,15.3415322 C121.435708,15.8088656 122.285017,16.0423964 123.257965,16.0423964 C124.313608,16.0423964 125.207093,15.7776013 125.938151,15.2471955 C126.6684,14.7159741 127.218983,13.9370851 127.58963,12.909169 C127.74694,12.4255237 127.940883,12.0296904 128.172806,11.7257469 C128.402306,11.4204441 128.773491,11.2671131 129.285285,11.2671131 C129.723812,11.2671131 130.09823,11.4228909 130.411772,11.7322716 C130.725582,12.0411086 130.882353,12.4255237 130.882353,12.8841575" id="Fill-54"></path>
                    <path d="M147.772185,9.45038419 C147.772185,8.10491222 147.559808,6.94023209 147.13345,5.95389701 C146.707091,4.96810566 146.098581,4.22264513 145.307652,3.71642795 C144.516188,3.21157011 143.609441,2.95900525 142.585807,2.95900525 C141.856397,2.95900525 141.182623,3.09820138 140.563413,3.37822485 C139.945809,3.65852018 139.414065,4.06550574 138.966041,4.59918154 C138.520425,5.13503227 138.168157,5.81823515 137.909507,6.64879019 C137.651392,7.48016083 137.522736,8.41375363 137.522736,9.45038419 C137.522736,10.494627 137.651392,11.4390945 137.909507,12.2821555 C138.168157,13.1263039 138.531124,13.8263626 139.003488,14.3817877 C139.474247,14.9383004 140.014818,15.3528983 140.625201,15.6293874 C141.23585,15.9042454 141.906148,16.0423541 142.635022,16.0423541 C143.569587,16.0423541 144.427385,15.8052857 145.209755,15.328702 C145.992125,14.8515747 146.615614,14.1164451 147.077547,13.1227696 C147.540015,12.1280066 147.772185,10.9043313 147.772185,9.45038419 M142.585807,0 C144.454401,0 146.057657,0.386867372 147.396914,1.15978651 C148.736171,1.93243379 149.750177,3.03186573 150.44,4.456723 C151.12688,5.88103653 151.470588,7.55302131 151.470588,9.475396 C151.470588,10.8964471 151.282552,12.1864581 150.905409,13.347604 C150.529069,14.5095654 149.963623,15.5162906 149.210141,16.3691388 C148.456123,17.2208995 147.52985,17.8725657 146.432393,18.3244094 C145.334667,18.7754375 144.076723,19 142.659898,19 C141.250829,19 139.988338,18.7689127 138.874564,18.3048349 C137.75972,17.8415728 136.830505,17.1871879 136.084245,16.3438551 C135.339856,15.4997067 134.776282,14.4850974 134.395395,13.2970366 C134.014775,12.1114227 133.823529,10.8284803 133.823529,9.45038419 C133.823529,8.03830469 134.021997,6.74312819 134.42027,5.56594216 C134.816939,4.38712493 135.392014,3.3844778 136.146032,2.5569133 C136.899782,1.73016441 137.816693,1.09671327 138.899974,0.65819108 C139.980046,0.219940762 141.208568,0 142.585807,0" id="Fill-55"></path>
                    <path d="M163.694594,15.8649392 L160.761159,3.96271024 L160.761159,16.8587266 C160.761159,17.5730373 160.604437,18.1082174 160.292895,18.4648199 C159.981354,18.8222516 159.567413,19 159.049988,19 C158.551847,19 158.143882,18.8236338 157.827995,18.4711779 C157.511021,18.1195513 157.352941,17.5818833 157.352941,16.8587266 L157.352941,2.07741663 C157.352941,1.26110109 157.561813,0.711822732 157.978469,0.426540767 C158.393496,0.14208811 158.954923,0 159.66275,0 L160.810049,0 C161.500765,0 162.002708,0.0641331549 162.313706,0.190187976 C162.626335,0.318454286 162.857207,0.548172612 163.006866,0.878790083 C163.157612,1.20968399 163.327915,1.75011639 163.518588,2.49759937 L166.176878,12.7301548 L168.835983,2.49759937 C169.026385,1.75011639 169.197502,1.20968399 169.347161,0.878790083 C169.496006,0.548172612 169.726878,0.318454286 170.039506,0.190187976 C170.352406,0.0641331549 170.852991,0 171.543164,0 L172.691821,0 C173.398562,0 173.959717,0.14208811 174.376102,0.426540767 C174.79303,0.711822732 175,1.26110109 175,2.07741663 L175,16.8587266 C175,17.5730373 174.844637,18.1082174 174.531737,18.4648199 C174.22101,18.8222516 173.801366,19 173.277965,19 C172.787158,19 172.383267,18.8222516 172.066836,18.4648199 C171.750134,18.1082174 171.593684,17.5730373 171.593684,16.8587266 L171.593684,3.96271024 L168.659977,15.8649392 C168.469575,16.6395129 168.313668,17.2067596 168.193343,17.5666793 C168.072475,17.9282576 167.849479,18.2577693 167.525443,18.5541087 C167.200321,18.8521067 166.751071,19 166.176878,19 C165.744468,19 165.378603,18.9054589 165.079013,18.7138887 C164.77915,18.5223186 164.545834,18.2779491 164.380149,17.980504 C164.214192,17.6841646 164.082188,17.3549293 163.986851,16.993351 C163.890428,16.6328784 163.794005,16.2558197 163.694594,15.8649392" id="Fill-56"></path>
                </g>
            </g>
        </g>
    </g>
</svg>